<svg viewBox="0 0 32 24" fill="white" xmlns="http://www.w3.org/2000/svg">
<path fill-rule="evenodd" clip-rule="evenodd" d="M30.399 1.79C31.358 2.826 31.67 5.179 31.67 5.179C31.67 5.179 31.99 7.94 31.99 10.702V13.29C31.99 16.052 31.67 18.813 31.67 18.813C31.67 18.813 31.357 21.165 30.399 22.199C29.3018 23.4233 28.086 23.5503 27.3993 23.6221C27.3242 23.6299 27.2555 23.6371 27.194 23.645C22.717 23.988 15.995 24 15.995 24C15.995 24 7.677 23.919 5.118 23.657C4.99688 23.6328 4.85015 23.614 4.68403 23.5926C3.87363 23.4885 2.6018 23.325 1.591 22.198C0.632 21.164 0.32 18.812 0.32 18.812C0.32 18.812 0 16.052 0 13.289V10.701C0 7.94 0.32 5.179 0.32 5.179C0.32 5.179 0.633 2.826 1.591 1.79C2.69298 0.561351 3.91284 0.437772 4.59811 0.368351C4.67025 0.361043 4.73647 0.354334 4.796 0.347C9.272 0 15.987 0 15.987 0H16.002C16.002 0 22.717 0 27.194 0.347C27.2536 0.354337 27.3198 0.361048 27.392 0.36836C28.0774 0.437783 29.298 0.561403 30.399 1.79ZM22 12L12 18V6L22 12Z"/>
</svg>
