<svg viewBox="0 0 30 30" fill="white" xmlns="http://www.w3.org/2000/svg">
<path d="M15 0C6.71572 0 0 6.71572 0 15C0 23.2843 6.71572 30 15 30C23.2843 30 30 23.2843 30 15C30 6.71572 23.2843 0 15 0ZM22.7964 9.48844L20.1323 22.207C20.1001 22.3609 20.0297 22.5041 19.9276 22.6237C19.8256 22.7432 19.6951 22.8352 19.5483 22.8911C19.4014 22.9471 19.2428 22.9653 19.0871 22.9439C18.9314 22.9226 18.7835 22.8625 18.6571 22.7691L14.7819 19.9062L12.4342 22.121C12.4034 22.15 12.3673 22.1726 12.3277 22.1874C12.2881 22.2023 12.246 22.2091 12.2038 22.2075C12.1616 22.2059 12.1201 22.1959 12.0818 22.1781C12.0435 22.1603 12.0091 22.135 11.9807 22.1038L11.9302 22.0484L12.3381 18.1006L19.6907 11.3828C19.7271 11.3496 19.7497 11.304 19.7541 11.255C19.7585 11.206 19.7444 11.1571 19.7145 11.118C19.6846 11.0789 19.6412 11.0524 19.5927 11.0437C19.5443 11.0351 19.4943 11.0449 19.4528 11.0712L10.0497 17.0226L6 15.6625C5.89232 15.6263 5.79847 15.5577 5.73133 15.4661C5.66419 15.3745 5.62704 15.2643 5.62499 15.1508C5.62293 15.0372 5.65607 14.9258 5.71986 14.8318C5.78364 14.7378 5.87495 14.6658 5.98125 14.6258L21.8262 8.65688C21.9484 8.61088 22.0807 8.59856 22.2094 8.62121C22.338 8.64386 22.4581 8.70065 22.5573 8.78564C22.6565 8.87062 22.731 8.98068 22.773 9.10431C22.8151 9.22795 22.8232 9.36061 22.7964 9.48844Z"/>
</svg>
