<svg viewBox="0 0 40 25" fill="white" xmlns="http://www.w3.org/2000/svg">
<path d="M1.35063 0C2.74932 0 4.88068 0 6.07956 0C6.679 0 7.14524 0.399629 7.34505 0.932466C7.94449 2.66419 9.27659 6.46066 10.8085 9.05824C12.8732 12.4551 14.2053 13.7206 15.0712 13.5874C15.9371 13.3875 15.6706 11.123 15.6706 9.32466C15.6706 7.52633 15.8705 4.46252 15.0046 3.06382L13.6725 1.13228C13.3395 0.666048 13.6725 0.066605 14.2053 0.066605H21.7983C22.5309 0.066605 23.1304 0.666047 23.1304 1.3987V11.0564C23.1304 11.0564 23.4634 12.7881 25.3283 10.9898C27.1933 9.19145 29.1914 5.86121 30.8565 2.46437L31.5226 0.865861C31.7224 0.399628 32.1886 0.066605 32.7214 0.066605H37.6502C38.5827 0.066605 39.2487 0.999071 38.9157 1.86493L38.3828 3.26363C38.3828 3.26363 36.5845 6.86029 34.7196 9.39126C32.8547 11.9888 32.455 12.5883 32.7214 13.2543C32.9879 13.9204 37.7834 18.3829 38.9823 20.5143C39.3153 21.1137 39.5817 21.6465 39.8481 22.1128C40.3144 22.9786 39.6483 24.1109 38.6493 24.1109H33.0545C32.5882 24.1109 32.122 23.8445 31.9222 23.4449L31.3893 22.579C31.3893 22.579 27.9925 18.5827 25.9278 17.3172C23.7964 16.1183 23.863 17.8501 23.863 17.8501V21.3801C23.863 22.8454 22.6641 24.0443 21.1988 24.0443H19.8667C19.8667 24.0443 12.5402 24.0443 6.679 15.3191C2.08328 8.5254 0.551369 4.12949 0.0185313 1.59851C-0.114678 0.799256 0.484764 0 1.35063 0Z"/>
</svg>
