<svg viewBox="0 0 32 26" fill="white" xmlns="http://www.w3.org/2000/svg">
<path d="M31.992 3.077C30.815 3.6 29.551 3.953 28.222 4.11C29.577 3.298 30.618 2.012 31.109 0.48C29.84 1.231 28.436 1.779 26.941 2.072C25.743 0.797 24.037 0 22.148 0C18.523 0 15.586 2.938 15.586 6.563C15.586 7.077 15.643 7.579 15.755 8.059C10.3 7.785 5.464 5.172 2.226 1.201C1.662 2.171 1.338 3.298 1.338 4.501C1.338 6.779 2.497 8.787 4.257 9.965C3.182 9.93 2.17 9.636 1.285 9.144C1.284 9.171 1.284 9.2 1.284 9.226C1.284 12.407 3.546 15.06 6.549 15.663C5.999 15.812 5.419 15.893 4.82 15.893C4.396 15.893 3.986 15.852 3.586 15.776C4.42 18.382 6.845 20.28 9.716 20.334C7.471 22.094 4.641 23.145 1.566 23.145C1.036 23.145 0.513 23.114 0 23.053C2.904 24.913 6.354 26 10.061 26C22.133 26 28.736 15.999 28.736 7.325C28.736 7.041 28.728 6.757 28.716 6.475C29.999 5.55 31.111 4.395 31.992 3.077Z"/>
</svg>
